<svg width="141" height="51" viewBox="0 0 141 51" fill="none" xmlns="http://www.w3.org/2000/svg">
<path d="M79.5464 16.6782H81.4023V18.6777H79.5464V22H77.0547V18.6777H70.605L70.5332 17.1602L76.9727 7.07031H79.5464V16.6782ZM73.1479 16.6782H77.0547V10.4438L76.8701 10.772L73.1479 16.6782ZM92.7842 15.7144C92.7842 17.8608 92.3809 19.481 91.5742 20.5747C90.7744 21.6616 89.5542 22.2051 87.9136 22.2051C86.3003 22.2051 85.0835 21.6753 84.2632 20.6157C83.4497 19.5493 83.0327 17.9736 83.0122 15.8887V13.3047C83.0122 11.1582 83.4121 9.54834 84.2119 8.4751C85.0186 7.40186 86.2456 6.86523 87.8931 6.86523C89.5269 6.86523 90.7437 7.38818 91.5435 8.43408C92.3501 9.47998 92.7637 11.0454 92.7842 13.1304V15.7144ZM90.2925 12.9253C90.2925 11.5239 90.1011 10.4985 89.7183 9.84912C89.3354 9.19287 88.7271 8.86475 87.8931 8.86475C87.0796 8.86475 86.4814 9.17578 86.0986 9.79785C85.7158 10.4131 85.5142 11.377 85.4937 12.6895V16.0732C85.4937 17.4678 85.6885 18.5068 86.0781 19.1904C86.4678 19.874 87.0796 20.2158 87.9136 20.2158C88.7134 20.2158 89.3047 19.9014 89.6875 19.2725C90.0703 18.6367 90.272 17.6455 90.2925 16.2988V12.9253ZM100.905 13.7866H104.802V16.063H100.905V20.5029H98.4854V16.063H94.5684V13.7866H98.4854V9.63379H100.905V13.7866Z" fill="white"/>
<path d="M78.0078 47H76.5625V39.7422H72.6719V47H71.2188V38.5469H78.0078V47ZM87.4688 42.8672C87.4688 44.1536 87.1745 45.1901 86.5859 45.9766C85.9974 46.763 85.2005 47.1562 84.1953 47.1562C83.1693 47.1562 82.362 46.8307 81.7734 46.1797V50.25H80.3281V38.5469H81.6484L81.7188 39.4844C82.3073 38.7552 83.125 38.3906 84.1719 38.3906C85.1875 38.3906 85.9896 38.7734 86.5781 39.5391C87.1719 40.3047 87.4688 41.3698 87.4688 42.7344V42.8672ZM86.0234 42.7031C86.0234 41.75 85.8203 40.9974 85.4141 40.4453C85.0078 39.8932 84.4505 39.6172 83.7422 39.6172C82.8672 39.6172 82.2109 40.0052 81.7734 40.7812V44.8203C82.2057 45.5911 82.8672 45.9766 83.7578 45.9766C84.4505 45.9766 85 45.7031 85.4062 45.1562C85.8177 44.6042 86.0234 43.7865 86.0234 42.7031ZM88.9297 42.6953C88.9297 41.8672 89.0911 41.1224 89.4141 40.4609C89.7422 39.7995 90.1953 39.2891 90.7734 38.9297C91.3568 38.5703 92.0208 38.3906 92.7656 38.3906C93.9167 38.3906 94.8464 38.7891 95.5547 39.5859C96.2682 40.3828 96.625 41.4427 96.625 42.7656V42.8672C96.625 43.6901 96.4661 44.4297 96.1484 45.0859C95.8359 45.737 95.3854 46.2448 94.7969 46.6094C94.2135 46.974 93.5417 47.1562 92.7812 47.1562C91.6354 47.1562 90.7057 46.7578 89.9922 45.9609C89.2839 45.1641 88.9297 44.1094 88.9297 42.7969V42.6953ZM90.3828 42.8672C90.3828 43.8047 90.599 44.5573 91.0312 45.125C91.4688 45.6927 92.0521 45.9766 92.7812 45.9766C93.5156 45.9766 94.099 45.6901 94.5312 45.1172C94.9635 44.5391 95.1797 43.7318 95.1797 42.6953C95.1797 41.7682 94.9583 41.0182 94.5156 40.4453C94.0781 39.8672 93.4948 39.5781 92.7656 39.5781C92.0521 39.5781 91.4766 39.862 91.0391 40.4297C90.6016 40.9974 90.3828 41.8099 90.3828 42.8672ZM101.945 47.1562C100.799 47.1562 99.8672 46.7812 99.1484 46.0312C98.4297 45.276 98.0703 44.2682 98.0703 43.0078V42.7422C98.0703 41.9036 98.2292 41.1562 98.5469 40.5C98.8698 39.8385 99.3177 39.3229 99.8906 38.9531C100.469 38.5781 101.094 38.3906 101.766 38.3906C102.865 38.3906 103.719 38.7526 104.328 39.4766C104.938 40.2005 105.242 41.237 105.242 42.5859V43.1875H99.5156C99.5365 44.0208 99.7786 44.6953 100.242 45.2109C100.711 45.7214 101.305 45.9766 102.023 45.9766C102.534 45.9766 102.966 45.8724 103.32 45.6641C103.674 45.4557 103.984 45.1797 104.25 44.8359L105.133 45.5234C104.424 46.612 103.362 47.1562 101.945 47.1562ZM101.766 39.5781C101.182 39.5781 100.693 39.7917 100.297 40.2188C99.901 40.6406 99.6562 41.2344 99.5625 42H103.797V41.8906C103.755 41.1562 103.557 40.5885 103.203 40.1875C102.849 39.7812 102.37 39.5781 101.766 39.5781ZM109.555 43.3984H108.5V47H107.047V38.5469H108.5V42.125H109.445L112.289 38.5469H114.039L110.695 42.6094L114.32 47H112.484L109.555 43.3984ZM121.844 39.7188H119.008V47H117.562V39.7188H114.781V38.5469H121.844V39.7188ZM122.539 42.6953C122.539 41.8672 122.701 41.1224 123.023 40.4609C123.352 39.7995 123.805 39.2891 124.383 38.9297C124.966 38.5703 125.63 38.3906 126.375 38.3906C127.526 38.3906 128.456 38.7891 129.164 39.5859C129.878 40.3828 130.234 41.4427 130.234 42.7656V42.8672C130.234 43.6901 130.076 44.4297 129.758 45.0859C129.445 45.737 128.995 46.2448 128.406 46.6094C127.823 46.974 127.151 47.1562 126.391 47.1562C125.245 47.1562 124.315 46.7578 123.602 45.9609C122.893 45.1641 122.539 44.1094 122.539 42.7969V42.6953ZM123.992 42.8672C123.992 43.8047 124.208 44.5573 124.641 45.125C125.078 45.6927 125.661 45.9766 126.391 45.9766C127.125 45.9766 127.708 45.6901 128.141 45.1172C128.573 44.5391 128.789 43.7318 128.789 42.6953C128.789 41.7682 128.568 41.0182 128.125 40.4453C127.688 39.8672 127.104 39.5781 126.375 39.5781C125.661 39.5781 125.086 39.862 124.648 40.4297C124.211 40.9974 123.992 41.8099 123.992 42.8672ZM132.18 47V38.5469H135.477C136.602 38.5469 137.464 38.7448 138.062 39.1406C138.667 39.5312 138.969 40.1068 138.969 40.8672C138.969 41.2578 138.852 41.612 138.617 41.9297C138.383 42.2422 138.036 42.4818 137.578 42.6484C138.089 42.7682 138.497 43.0026 138.805 43.3516C139.117 43.7005 139.273 44.1172 139.273 44.6016C139.273 45.3776 138.987 45.9714 138.414 46.3828C137.846 46.7943 137.042 47 136 47H132.18ZM133.625 43.2891V45.8359H136.016C136.62 45.8359 137.07 45.724 137.367 45.5C137.669 45.276 137.82 44.9609 137.82 44.5547C137.82 43.7109 137.201 43.2891 135.961 43.2891H133.625ZM133.625 42.1328H135.492C136.846 42.1328 137.523 41.737 137.523 40.9453C137.523 40.1536 136.883 39.7448 135.602 39.7188H133.625V42.1328Z" fill="white"/>
<g clip-path="url(#clip0_1_12)">
<path d="M49.1665 0H11.6666C11.2064 0 10.8333 0.373124 10.8333 0.833332V13.3333H12.5V1.66666H48.3332V47.4999C48.3412 47.9381 48.0031 48.3052 47.5657 48.3332C47.494 48.3332 47.4224 48.3274 47.3507 48.3257C47.2032 48.3216 47.0557 48.3182 46.9107 48.3032C46.8982 48.3032 46.8866 48.3032 46.8741 48.2982C44.1524 48.0007 42.0025 45.8529 41.7024 43.1316C41.7024 43.1199 41.6982 43.1074 41.6966 43.0957C41.6764 42.8977 41.6664 42.6989 41.6666 42.4999V40.8333C41.6666 40.373 41.2934 39.9999 40.8332 39.9999H12.5V24.9999H10.8333V39.9999H4.16664C3.70644 39.9999 3.33331 40.373 3.33331 40.8333V42.4999C3.3379 46.6401 6.6931 49.9953 10.8333 49.9999H47.5832C48.9355 49.9645 50.0103 48.8526 49.9999 47.4999V0.833332C49.9999 0.373124 49.6268 0 49.1665 0ZM10.8333 48.3332C7.6132 48.3296 5.00362 45.72 4.99998 42.4999V41.6666H39.9999V42.4999C40.001 42.7747 40.0169 43.0493 40.0474 43.3224C40.0549 43.3949 40.0691 43.4649 40.0791 43.5366C40.1066 43.7382 40.1399 43.9391 40.1841 44.1366C40.1991 44.2057 40.2182 44.2741 40.2357 44.3432C40.2866 44.5441 40.3441 44.7416 40.4107 44.9366C40.4299 44.9924 40.4499 45.0474 40.4707 45.1032C40.5466 45.3099 40.6324 45.5116 40.7266 45.7107C40.7466 45.7516 40.7649 45.7941 40.7849 45.8316C40.8894 46.0427 41.0041 46.2479 41.1291 46.4474C41.1457 46.4741 41.1607 46.5016 41.1774 46.5307C41.3132 46.7436 41.4599 46.9494 41.6166 47.1474L41.6432 47.1832C41.8251 47.4117 42.0199 47.6295 42.2266 47.8357C42.406 48.0135 42.5921 48.1802 42.7849 48.3357L10.8333 48.3332Z" fill="white"/>
<path d="M27.4999 23.3333C27.721 23.3333 27.9329 23.2454 28.0891 23.0891L31.4224 19.7558C31.7477 19.4304 31.7477 18.9029 31.4224 18.5775L28.0891 15.2441C27.9329 15.0879 27.721 15 27.4999 15H4.16666C1.86552 15 0 16.8655 0 19.1666C0 21.4678 1.86552 23.3333 4.16666 23.3333H27.4999ZM27.2849 16.7966L29.6549 19.1666L27.2849 21.5366L26.6924 19.1666L27.2849 16.7966ZM6.66665 16.6666H25.5999L25.1833 18.3333H8.33332V20H25.1833L25.5999 21.6666H6.66665V16.6666ZM1.66666 19.1666C1.66666 17.7859 2.78593 16.6666 4.16666 16.6666H4.99999V21.6666H4.16666C2.78593 21.6666 1.66666 20.5474 1.66666 19.1666Z" fill="white"/>
<path d="M19.1667 35.8333H44.1666C44.6268 35.8333 44.9999 35.4601 44.9999 34.9999V9.99998C44.9998 9.53977 44.6267 9.16675 44.1664 9.16685C43.9455 9.16685 43.7337 9.25467 43.5774 9.41081L18.5775 34.4108C18.2521 34.7363 18.2522 35.2639 18.5777 35.5893C18.734 35.7454 18.9457 35.8333 19.1667 35.8333ZM43.3333 12.0116V14.1666H41.6666V15.8333H43.3333V17.5H41.6666V19.1666H43.3333V20.8333H41.6666V22.5H43.3333V24.1666H41.6666V25.8333H43.3333V27.4999H41.6666V29.1666H43.3333V30.8333H41.6666V32.4999H43.3333V34.1666H41.6666V32.4999H40V34.1666H38.3333V32.4999H36.6666V34.1666H35V32.4999H33.3333V34.1666H31.6666V32.4999H30V34.1666H28.3333V32.4999H26.6666V34.1666H25V32.4999H23.3333V34.1666H21.1783L43.3333 12.0116Z" fill="white"/>
<path d="M31.2375 30.8333H39.1666C39.6268 30.8333 40 30.4602 40 29.9999V22.0708C39.9999 21.6106 39.6267 21.2376 39.1664 21.2377C38.9455 21.2377 38.7337 21.3255 38.5775 21.4816L30.6483 29.4108C30.3229 29.7363 30.323 30.2639 30.6485 30.5893C30.8048 30.7455 31.0165 30.8333 31.2375 30.8333ZM38.3333 24.0833V29.1666H33.25L38.3333 24.0833Z" fill="white"/>
<path d="M38.3333 4.99998H21.6666V6.66665H38.3333V4.99998Z" fill="white"/>
<path d="M40.8332 8.33331H19.1666V9.99998H40.8332V8.33331Z" fill="white"/>
<path d="M19.1666 25.8333H14.1666V27.4999H19.1666V25.8333Z" fill="white"/>
<path d="M17.5 29.1666H14.1666V30.8333H17.5V29.1666Z" fill="white"/>
</g>
<defs>
<clipPath id="clip0_1_12">
<rect width="50" height="50" fill="white"/>
</clipPath>
</defs>
</svg>
